<svg xmlns="http://www.w3.org/2000/svg" version="1.1" xmlns:xlink="http://www.w3.org/1999/xlink" width="200" height="200"><svg xmlns="http://www.w3.org/2000/svg" version="1.1" xmlns:xlink="http://www.w3.org/1999/xlink" viewBox="0 0 200 200"><rect width="200" height="200" fill="url('#gradient')"></rect><defs><linearGradient id="SvgjsLinearGradient1001" gradientTransform="rotate(45 0.5 0.5)"><stop offset="0%" stop-color="#9e680d"></stop><stop offset="100%" stop-color="#d9e241"></stop></linearGradient></defs><g><g fill="#1b3855" transform="matrix(1.9694411796132065,0,0,1.9694411796132065,8.232208809602696,110.97592252940625)" stroke="#0e5278" stroke-width="0.2"><path d="M4.39-10.57L4.39 0L1.09 0L1.09-10.57L4.39-10.57ZM0.90-13.29L0.90-13.29Q0.90-13.99 1.41-14.44Q1.91-14.89 2.72-14.89Q3.54-14.89 4.04-14.44Q4.55-13.99 4.55-13.29Q4.55-12.59 4.04-12.14Q3.54-11.69 2.72-11.69Q1.91-11.69 1.41-12.14Q0.90-12.59 0.90-13.29ZM6.36-10.57L9.44-10.57L9.55-9.33Q10.64-10.76 12.57-10.76L12.57-10.76Q14.22-10.76 15.03-9.78Q15.85-8.79 15.88-6.81L15.88-6.81L15.88 0L12.58 0L12.58-6.67Q12.58-7.47 12.26-7.85Q11.93-8.22 11.08-8.22L11.08-8.22Q10.12-8.22 9.65-7.46L9.65-7.46L9.65 0L6.36 0L6.36-10.57ZM21.73 0L18.43 0L18.43-8.28L16.89-8.28L16.89-10.57L18.43-10.57L18.43-11.41Q18.43-13.21 19.49-14.21Q20.56-15.21 22.48-15.21L22.48-15.21Q23.18-15.21 24.02-15L24.02-15L24.03-12.58Q23.73-12.67 23.22-12.67L23.22-12.67Q21.73-12.67 21.73-11.38L21.73-11.38L21.73-10.57L23.79-10.57L23.79-8.28L21.73-8.28L21.73 0ZM28.42-10.57L28.42 0L25.12 0L25.12-10.57L28.42-10.57ZM24.92-13.29L24.92-13.29Q24.92-13.99 25.43-14.44Q25.94-14.89 26.75-14.89Q27.56-14.89 28.07-14.44Q28.57-13.99 28.57-13.29Q28.57-12.59 28.07-12.14Q27.56-11.69 26.75-11.69Q25.94-11.69 25.43-12.14Q24.92-12.59 24.92-13.29ZM30.38-10.57L33.47-10.57L33.57-9.33Q34.67-10.76 36.59-10.76L36.59-10.76Q38.24-10.76 39.06-9.78Q39.87-8.79 39.90-6.81L39.90-6.81L39.90 0L36.60 0L36.60-6.67Q36.60-7.47 36.28-7.85Q35.96-8.22 35.11-8.22L35.11-8.22Q34.14-8.22 33.67-7.46L33.67-7.46L33.67 0L30.38 0L30.38-10.57ZM45.20-10.57L45.20 0L41.89 0L41.89-10.57L45.20-10.57ZM41.70-13.29L41.70-13.29Q41.70-13.99 42.21-14.44Q42.71-14.89 43.53-14.89Q44.34-14.89 44.84-14.44Q45.35-13.99 45.35-13.29Q45.35-12.59 44.84-12.14Q44.34-11.69 43.53-11.69Q42.71-11.69 42.21-12.14Q41.70-12.59 41.70-13.29ZM59.41-7.47L59.41-6.82Q59.41-4.74 58.64-3.13Q57.87-1.53 56.45-0.67Q55.03 0.20 53.21 0.20Q51.40 0.20 49.99-0.64Q48.58-1.47 47.80-3.03Q47.01-4.58 46.97-6.59L46.97-6.59L46.97-7.39Q46.97-9.48 47.74-11.08Q48.51-12.68 49.94-13.54Q51.37-14.41 53.19-14.41L53.19-14.41Q55-14.41 56.42-13.55Q57.83-12.70 58.62-11.11Q59.40-9.52 59.41-7.47L59.41-7.47ZM55.93-6.76L55.93-7.41Q55.93-9.53 55.22-10.63Q54.51-11.73 53.19-11.73L53.19-11.73Q50.62-11.73 50.47-7.86L50.47-7.86L50.46-6.82Q50.46-4.73 51.15-3.60Q51.85-2.48 53.21-2.48L53.21-2.48Q54.51-2.48 55.21-3.58Q55.92-4.69 55.93-6.76L55.93-6.76ZM70.84-5.36L70.84-5.21Q70.84-2.74 69.73-1.27Q68.62 0.20 66.74 0.20L66.74 0.20Q65.28 0.20 64.35-0.87L64.35-0.87L64.35 4.06L61.05 4.06L61.05-10.57L64.13-10.57L64.23-9.59Q65.18-10.76 66.72-10.76L66.72-10.76Q68.67-10.76 69.76-9.32Q70.84-7.88 70.84-5.36L70.84-5.36ZM67.55-5.06L67.55-5.41Q67.55-8.22 65.91-8.22L65.91-8.22Q64.74-8.22 64.35-7.38L64.35-7.38L64.35-3.22Q64.78-2.34 65.93-2.34L65.93-2.34Q67.50-2.34 67.55-5.06L67.55-5.06ZM78.68 0L78.58-1.14Q77.54 0.20 75.76 0.20L75.76 0.20Q74.02 0.20 73.13-0.82Q72.24-1.83 72.24-3.72L72.24-3.72L72.24-10.57L75.53-10.57L75.53-3.70Q75.53-2.34 76.85-2.34L76.85-2.34Q77.98-2.34 78.46-3.15L78.46-3.15L78.46-10.57L81.77-10.57L81.77 0L78.68 0ZM89.10-2.97L89.10-2.97Q89.10-3.39 88.66-3.64Q88.22-3.90 86.99-4.17Q85.76-4.44 84.96-4.89Q84.16-5.33 83.74-5.97Q83.32-6.60 83.32-7.42L83.32-7.42Q83.32-8.88 84.52-9.82Q85.72-10.76 87.67-10.76L87.67-10.76Q89.76-10.76 91.03-9.81Q92.29-8.87 92.29-7.32L92.29-7.32L88.99-7.32Q88.99-8.59 87.66-8.59L87.66-8.59Q87.14-8.59 86.79-8.31Q86.44-8.02 86.44-7.59L86.44-7.59Q86.44-7.15 86.87-6.88Q87.29-6.60 88.24-6.43Q89.18-6.25 89.89-6.01L89.89-6.01Q92.28-5.19 92.28-3.07L92.28-3.07Q92.28-1.62 90.99-0.71Q89.71 0.20 87.67 0.20L87.67 0.20Q86.31 0.20 85.24-0.29Q84.18-0.78 83.58-1.62Q82.99-2.46 82.99-3.39L82.99-3.39L86.06-3.39Q86.08-2.66 86.55-2.32Q87.02-1.98 87.75-1.98L87.75-1.98Q88.43-1.98 88.76-2.26Q89.10-2.53 89.10-2.97Z"></path></g></g></svg><style>@media (prefers-color-scheme: light) { :root { filter: none; } }
@media (prefers-color-scheme: dark) { :root { filter: none; } }
</style></svg>